<?xml version="1.0" standalone="no"?>
<!DOCTYPE svg PUBLIC "-//W3C//DTD SVG 20010904//EN"
 "http://www.w3.org/TR/2001/REC-SVG-20010904/DTD/svg10.dtd">
<svg version="1.0" xmlns="http://www.w3.org/2000/svg"
 width="100%" height="100%" viewBox="0 0 996.000000 1001.000000"
 preserveAspectRatio="xMidYMid meet">

<g transform="translate(-270.00000,1001.000000) scale(0.150000,-0.150000)"
fill="#000000" stroke="none" stroke-width="0">
<path d="M4893 8322 c-94 -70 -271 -199 -392 -287 -140 -101 -217 -163 -211
-169 5 -5 184 -136 397 -291 l388 -282 3 178 2 179 83 0 c45 0 134 -5 197 -10
634 -55 1212 -316 1662 -748 475 -458 762 -1027 865 -1707 20 -140 17 -581 -5
-725 -98 -630 -376 -1181 -821 -1623 -1025 -1019 -2687 -1104 -3819 -194 -600
483 -971 1152 -1073 1932 -21 157 -24 533 -6 678 110 889 584 1657 1330 2152
76 50 99 73 35 34 -283 -171 -575 -422 -779 -669 -287 -348 -499 -774 -605
-1216 -61 -259 -73 -369 -74 -699 0 -306 4 -358 47 -585 93 -498 351 -1026
690 -1412 484 -551 1119 -900 1853 -1019 187 -30 594 -38 795 -15 667 77 1255
341 1745 783 581 524 942 1248 1016 2036 17 182 7 574 -19 742 -73 474 -239
904 -494 1285 -140 209 -210 294 -407 490 -270 270 -500 436 -831 601 -389
193 -821 307 -1237 326 l-143 6 0 179 c0 98 -3 178 -7 177 -5 0 -85 -58 -180
-127z"/>
<path d="M4517 6734 c-4 -4 -7 -99 -7 -211 l0 -203 -345 0 -345 0 0 -209 c0
-181 2 -210 16 -215 9 -3 92 -6 185 -6 156 0 171 -2 189 -20 20 -20 20 -33 20
-979 0 -929 -1 -960 -19 -982 -19 -23 -24 -24 -205 -27 l-186 -4 0 -209 0
-209 345 0 345 0 2 -207 3 -208 145 0 145 0 300 208 2 207 145 0 145 0 2 -207 3
-208 147 -3 148 -3 2 218 3 218 25 3 c251 27 492 107 631 209 134 99 231 247
264 401 21 103 20 261 -4 354 -54 211 -202 383 -423 491 -48 23 -87 44 -88 47
0 3 29 20 65 38 75 39 175 140 224 225 52 91 75 202 68 332 -13 239 -97 419
-258 551 -104 85 -215 133 -394 168 l-110 22 -3 212 -2 213 -148 -3 -147 -3
-3 -207 -2 -208 -145 0 -145 0 -2 208 -3 207 -141 3 c-77 1 -143 -1 -147 -4z
m901 -878 c141 -65 208 -219 172 -398 -16 -84 -40 -127 -96 -177 -81 -71 -132
-81 -430 -81 l-254 0 0 346 0 345 273 -3 272 -3 63 -29z m14 -1167 c132 -28
242 -108 294 -215 27 -55 29 -67 29 -179 0 -109 -2 -125 -27 -177 -51 -110
-138 -179 -268 -214 -54 -14 -114 -17 -355 -18 l-290 -1 -3 408 -2 407 284 0
c170 0 307 -4 338 -11z"/>
</g>
</svg>
