<?xml version="1.0" standalone="no"?>
<!DOCTYPE svg PUBLIC "-//W3C//DTD SVG 20010904//EN"
 "http://www.w3.org/TR/2001/REC-SVG-20010904/DTD/svg10.dtd">
<svg version="1.0" xmlns="http://www.w3.org/2000/svg"
 viewBox="0 0 600.000000 600.000000"
 preserveAspectRatio="xMidYMid meet">

<g transform="translate(0.000000,600.000000) scale(0.100000,-0.100000)"
fill="#000000" stroke="none">
<path d="M778 3760 c-20 -11 -47 -34 -60 -52 l-23 -33 -3 -545 c-2 -300 0
-561 3 -580 5 -26 30 -58 103 -133 54 -54 123 -116 156 -138 l58 -39 1017 0
1016 0 40 23 c26 14 48 37 63 67 22 44 22 44 22 579 0 528 0 535 -22 579 -27
56 -209 247 -260 273 -36 18 -72 19 -1055 19 -987 -1 -1019 -1 -1055 -20z
m2113 -78 l29 -32 0 -540 c0 -397 -3 -546 -12 -565 -26 -57 20 -55 -1073 -55
-1093 0 -1047 -2 -1073 55 -9 19 -12 168 -12 564 0 535 0 538 21 565 12 15 31
32 43 36 11 5 477 8 1034 7 l1014 -2 29 -33z m148 -145 c76 -89 72 -46 69
-642 l-3 -535 -28 -27 -27 -28 -1005 -3 c-878 -2 -1009 0 -1034 13 -31 16
-124 92 -129 106 -2 5 446 10 996 11 993 3 1001 3 1028 24 15 11 37 33 48 48
21 27 21 40 24 557 1 292 6 529 11 527 4 -2 27 -25 50 -51z"/>
<path d="M2386 3314 c-3 -9 -6 -45 -6 -80 0 -35 -2 -64 -5 -64 -2 0 -19 9 -37
20 -64 39 -149 15 -185 -52 -25 -47 -24 -143 2 -187 43 -74 125 -97 185 -52
34 25 40 26 40 6 0 -24 34 -36 56 -20 17 12 19 31 22 202 3 208 -3 243 -42
243 -13 0 -27 -7 -30 -16z m-55 -177 c44 -33 54 -126 18 -171 -41 -53 -118
-24 -132 50 -17 88 56 166 114 121z"/>
<path d="M1304 3196 c-50 -22 -78 -71 -82 -142 -8 -114 45 -174 153 -174 72 0
122 23 143 66 12 27 13 36 2 49 -20 24 -43 18 -73 -20 -23 -29 -34 -35 -67
-35 -53 0 -80 34 -80 102 0 41 5 54 29 79 16 16 37 29 46 29 24 0 57 -20 78
-47 35 -43 77 -23 63 31 -15 58 -140 95 -212 62z"/>
<path d="M1612 3198 c-8 -8 -12 -58 -12 -160 0 -135 2 -148 19 -158 26 -13 50
-3 56 24 2 11 6 63 7 114 3 85 5 96 27 113 26 21 39 23 61 9 11 -7 16 -37 20
-126 4 -104 7 -118 26 -130 17 -12 23 -12 40 0 16 12 20 31 24 122 5 101 6
108 31 126 22 16 30 18 48 9 19 -11 21 -21 22 -99 1 -112 6 -144 26 -159 22
-17 28 -16 47 3 22 21 23 232 2 273 -28 54 -101 66 -159 26 -28 -19 -38 -21
-44 -11 -23 39 -91 46 -141 16 -39 -24 -42 -24 -42 -6 0 8 -7 17 -16 20 -22 8
-28 8 -42 -6z"/>
<path d="M3864 3761 c-25 -12 -50 -33 -65 -57 l-24 -39 -3 -538 c-2 -367 1
-551 8 -580 9 -34 32 -63 118 -148 59 -58 128 -118 153 -132 l47 -27 549 2
550 3 37 29 c68 51 66 36 66 636 0 531 0 542 -21 582 -27 54 -224 257 -266
274 -26 11 -137 14 -570 14 -503 0 -541 -2 -579 -19z m1136 -56 c16 -8 34 -24
40 -34 6 -13 10 -212 10 -571 l0 -552 -29 -29 -29 -29 -541 0 c-363 0 -548 4
-564 11 -49 22 -49 14 -47 601 0 343 4 558 11 569 25 48 30 48 592 49 452 0
532 -2 557 -15z m166 -162 c81 -97 74 -36 74 -635 l0 -538 -29 -32 -29 -33
-531 -3 c-458 -2 -535 0 -560 13 -32 16 -124 92 -129 106 -2 5 229 9 515 9
485 0 521 1 553 19 19 10 45 33 58 51 l22 33 0 528 c0 298 4 529 9 529 5 0 26
-21 47 -47z"/>
<path d="M4302 3318 c-9 -9 -12 -69 -12 -220 0 -194 1 -208 19 -218 24 -12 48
-4 61 21 6 10 10 54 10 98 l0 81 89 0 c83 0 90 2 97 22 11 35 -19 48 -108 48
l-78 0 0 55 0 55 93 0 c100 0 132 12 125 46 -3 18 -14 19 -143 22 -101 2 -144
-1 -153 -10z"/>
<path d="M3473 3243 c-8 -3 -13 -24 -13 -53 l0 -49 -46 -3 c-50 -3 -72 -22
-61 -52 5 -12 19 -16 57 -16 l50 0 0 -50 c0 -38 4 -52 16 -57 30 -11 49 11 52
61 l3 46 43 0 c52 0 73 18 56 49 -8 16 -20 21 -55 21 l-45 0 0 45 c0 34 -5 47
-19 55 -11 5 -21 10 -23 9 -2 0 -9 -3 -15 -6z"/>
</g>
</svg>
