<svg version="1.0" xmlns="http://www.w3.org/2000/svg"
    width="512.000000pt" height="512.000000pt" viewBox="0 0 512.000000 512.000000"
    preserveAspectRatio="xMidYMid meet">

    <g transform="translate(0.000000,512.000000) scale(0.10000,-0.100000)"
    >
        <path
            d="M80 2585 l0 -2456 25 -24 24 -25 2456 0 2455 0 0 80 0 180 -2400 0
    -2400 0 0 2400 0 2400 -80 0 -80 0 0 -2455z"
        />
        <path
            d="M3988 4983 c-76 -73 -203 -230 -281 -348 -114 -173 -213 -407 -247
-587 l-11 -57 -147 -122 c-81 -67 -155 -130 -164 -141 -16 -18 -18 -47 -18
-290 l0 -269 25 -24 c41 -42 67 -34 230 75 82 55 152 96 156 92 3 -4 16 -34
29 -67 38 -98 78 -173 102 -189 19 -14 75 -16 418 -16 343 0 399 2 418 16 24
16 64 91 102 189 13 33 26 63 29 67 4 4 74 -37 156 -92 163 -109 189 -117 230
-75 l25 24 0 272 0 271 -32 30 c-18 17 -92 80 -165 140 l-132 110 -11 57 c-20
104 -79 277 -133 387 -91 185 -270 430 -405 557 -71 66 -95 64 -174 -10z m172
-225 c212 -246 357 -543 391 -797 26 -193 -24 -483 -122 -712 l-21 -49 -328 0
-328 0 -31 73 c-92 222 -137 500 -112 690 31 233 154 498 339 732 64 82 123
145 134 145 4 0 39 -37 78 -82z" />
        <path
            d="M3980 4144 c-227 -82 -293 -362 -125 -529 65 -66 125 -90 225 -90
100 0 160 24 225 90 66 65 90 125 90 225 0 100 -24 160 -90 225 -82 82 -222
116 -325 79z" />
        <path d="M3760 2720 l0 -160 80 0 80 0 0 160 0 160 -80 0 -80 0 0 -160z" />
        <path d="M4240 2720 l0 -160 80 0 80 0 0 160 0 160 -80 0 -80 0 0 -160z" />
        <path
            d="M3116 2307 c-93 -243 -174 -450 -179 -461 -8 -16 -31 3 -176 148
-144 142 -172 166 -198 166 -17 0 -40 -8 -51 -17 -14 -12 -95 -215 -232 -583
-117 -311 -215 -571 -219 -578 -5 -9 -34 21 -90 97 -132 176 -139 174 -308
-79 -69 -105 -129 -190 -132 -190 -3 0 -48 83 -98 184 -81 161 -97 185 -123
195 -35 12 -67 3 -91 -25 -10 -11 -52 -90 -95 -176 -43 -87 -81 -158 -84 -158
-3 0 -44 78 -92 174 -77 152 -92 175 -118 185 -35 12 -67 3 -91 -25 -18 -20
-332 -644 -327 -649 8 -7 128 -65 135 -65 5 0 62 108 128 240 66 132 122 240
125 240 3 0 44 -78 92 -174 76 -151 92 -175 118 -184 21 -8 39 -8 60 0 26 9
42 33 118 184 48 96 89 174 92 174 3 0 46 -80 95 -178 73 -143 95 -179 116
-186 58 -20 72 -7 210 202 72 108 134 200 138 204 4 4 48 -48 99 -116 51 -68
100 -127 108 -130 28 -11 61 -6 83 11 17 15 241 595 456 1182 4 10 61 -41 174
-152 144 -143 172 -167 198 -167 17 0 40 8 52 18 13 11 92 204 221 539 110
287 200 526 200 530 0 5 -30 19 -67 33 -37 14 -70 26 -73 27 -3 2 -81 -196
-174 -440z" />
        <path d="M4000 2560 l0 -160 80 0 80 0 0 160 0 160 -80 0 -80 0 0 -160z" />
    </g>
</svg>