<?xml version="1.0" standalone="no"?>
<!DOCTYPE svg PUBLIC "-//W3C//DTD SVG 20010904//EN"
 "http://www.w3.org/TR/2001/REC-SVG-20010904/DTD/svg10.dtd">
<svg version="1.0" xmlns="http://www.w3.org/2000/svg"
 viewBox="0 0 600.000000 600.000000"
 preserveAspectRatio="xMidYMid meet">

<g transform="translate(0.000000,600.000000) scale(0.100000,-0.100000)"
fill="#000000" stroke="none">
<path d="M778 3760 c-20 -11 -47 -34 -60 -52 l-23 -33 -3 -545 c-2 -300 0
-561 3 -580 5 -26 30 -58 103 -133 54 -54 123 -116 156 -138 l58 -39 1017 0
1016 0 40 23 c26 14 48 37 63 67 22 44 22 44 22 579 0 528 0 535 -22 579 -27
56 -209 247 -260 273 -36 18 -72 19 -1055 19 -987 -1 -1019 -1 -1055 -20z
m2113 -78 l29 -32 0 -540 c0 -397 -3 -546 -12 -565 -26 -57 20 -55 -1073 -55
-1093 0 -1047 -2 -1073 55 -9 19 -12 168 -12 564 0 535 0 538 21 565 12 15 31
32 43 36 11 5 477 8 1034 7 l1014 -2 29 -33z m148 -145 c76 -89 72 -46 69
-642 l-3 -535 -28 -27 -27 -28 -1005 -3 c-878 -2 -1009 0 -1034 13 -31 16
-124 92 -129 106 -2 5 446 10 996 11 993 3 1001 3 1028 24 15 11 37 33 48 48
21 27 21 40 24 557 1 292 6 529 11 527 4 -2 27 -25 50 -51z"/>
<path d="M2292 3318 c-9 -9 -12 -70 -12 -214 0 -171 2 -205 16 -218 18 -19 20
-19 45 -6 18 10 19 23 19 215 0 112 -3 210 -6 219 -7 19 -45 21 -62 4z"/>
<path d="M1752 3308 c-7 -7 -12 -33 -12 -59 0 -42 -3 -48 -22 -51 -33 -4 -35
-35 -4 -49 25 -12 26 -15 26 -110 0 -120 8 -143 54 -159 52 -17 116 2 116 35
0 21 -5 24 -42 27 l-43 3 -3 97 -3 96 31 7 c34 8 43 17 34 39 -4 10 -18 16
-35 16 -28 0 -29 2 -29 48 0 50 -12 72 -40 72 -9 0 -21 -5 -28 -12z"/>
<path d="M1393 3189 c-95 -47 -112 -202 -32 -276 44 -41 145 -48 207 -14 33
18 55 57 48 86 -9 35 -34 31 -72 -10 -26 -29 -39 -35 -73 -35 -53 0 -76 32
-76 108 0 46 4 57 28 78 40 34 73 31 113 -12 36 -37 59 -41 78 -12 8 13 6 24
-10 45 -45 62 -135 80 -211 42z"/>
<path d="M1992 3198 c-8 -8 -12 -58 -12 -160 0 -130 2 -148 18 -156 19 -10 43
-5 54 12 4 6 8 47 8 92 0 133 16 157 100 151 29 -2 36 2 38 20 7 46 -82 72
-115 33 -20 -23 -33 -26 -33 -6 0 8 -7 17 -16 20 -22 8 -28 8 -42 -6z"/>
<path d="M3864 3761 c-25 -12 -50 -33 -65 -57 l-24 -39 -3 -538 c-2 -367 1
-551 8 -580 9 -34 32 -63 118 -148 59 -58 128 -118 153 -132 l47 -27 549 2
550 3 37 29 c68 51 66 36 66 636 0 531 0 542 -21 582 -27 54 -224 257 -266
274 -26 11 -137 14 -570 14 -503 0 -541 -2 -579 -19z m1136 -56 c16 -8 34 -24
40 -34 6 -13 10 -212 10 -571 l0 -552 -29 -29 -29 -29 -541 0 c-363 0 -548 4
-564 11 -49 22 -49 14 -47 601 0 343 4 558 11 569 25 48 30 48 592 49 452 0
532 -2 557 -15z m166 -162 c81 -97 74 -36 74 -635 l0 -538 -29 -32 -29 -33
-531 -3 c-458 -2 -535 0 -560 13 -32 16 -124 92 -129 106 -2 5 229 9 515 9
485 0 521 1 553 19 19 10 45 33 58 51 l22 33 0 528 c0 298 4 529 9 529 5 0 26
-21 47 -47z"/>
<path d="M4302 3318 c-9 -9 -12 -69 -12 -220 0 -194 1 -208 19 -218 24 -12 48
-4 61 21 6 10 10 54 10 98 l0 81 89 0 c83 0 90 2 97 22 11 35 -19 48 -108 48
l-78 0 0 55 0 55 93 0 c100 0 132 12 125 46 -3 18 -14 19 -143 22 -101 2 -144
-1 -153 -10z"/>
<path d="M3416 3234 c-9 -9 -16 -32 -16 -54 l0 -39 -47 -3 c-46 -3 -48 -4 -48
-33 0 -29 2 -30 48 -33 l47 -3 0 -43 c0 -47 17 -70 47 -64 14 2 19 15 23 53
l5 50 50 5 c38 4 51 9 53 23 6 30 -17 47 -64 47 l-44 0 0 49 c0 35 -4 51 -16
55 -21 8 -20 8 -38 -10z"/>
</g>
</svg>
