<?xml version="1.0" standalone="no"?>
<!DOCTYPE svg PUBLIC "-//W3C//DTD SVG 20010904//EN"
 "http://www.w3.org/TR/2001/REC-SVG-20010904/DTD/svg10.dtd">
<svg version="1.0" xmlns="http://www.w3.org/2000/svg"
 width="450.000000px" height="450.000000px" viewBox="0 0 500 500"
 preserveAspectRatio="xMidYMid meet">

<g transform="translate(0,500) scale(0.100000, -0.100000)"
fill="#8a00ff" stroke="none">
<path d="M450 5113 c-187 -32 -338 -170 -391 -358 -21 -75 -21 -4315 0 -4390
47 -165 160 -285 323 -342 51 -17 138 -18 2178 -18 2040 0 2127 1 2178 18 163
57 276 177 323 342 21 75 21 4315 0 4390 -46 162 -153 278 -317 341 -47 18
-119 19 -2159 20 -1160 1 -2121 -1 -2135 -3z m3767 -548 c164 -49 291 -189
323 -354 14 -74 14 -3228 0 -3302 -32 -165 -159 -305 -323 -354 -44 -13 -257
-15 -1657 -15 -1400 0 -1613 2 -1657 15 -164 49 -291 189 -323 354 -14 74 -14
3228 0 3302 31 163 158 304 319 353 71 22 3244 23 3318 1z"/>
<path d="M920 4369 c-64 -29 -117 -84 -140 -146 -20 -53 -20 -80 -20 -1663 0
-1583 0 -1610 20 -1663 23 -62 76 -117 140 -146 45 -20 58 -21 1640 -21 1582
0 1595 1 1640 21 64 29 117 84 140 146 20 53 20 80 20 1663 0 1583 0 1610 -20
1663 -23 62 -76 117 -140 146 -45 20 -58 21 -1640 21 -1582 0 -1595 -1 -1640
-21z m1610 -499 l0 -190 -410 0 -410 0 0 -235 0 -235 350 0 350 0 0 -190 0
-190 -350 0 -350 0 0 -420 0 -420 -260 0 -260 0 0 1035 0 1035 670 0 670 0 0
-190z"/>
</g>
</svg>
