<?xml version="1.0" standalone="no"?>
<!DOCTYPE svg PUBLIC "-//W3C//DTD SVG 20010904//EN"
 "http://www.w3.org/TR/2001/REC-SVG-20010904/DTD/svg10.dtd">
<svg version="1.0" xmlns="http://www.w3.org/2000/svg"
 width="512.000000pt" height="512.000000pt" viewBox="0 0 512.000000 512.000000"
 preserveAspectRatio="xMidYMid meet">

<g transform="translate(0.000000,512.000000) scale(0.100000,-0.100000)"
fill="#000000" stroke="none">
<path d="M2257 5075 c-377 -46 -771 -191 -1085 -399 -557 -368 -950 -942
-1091 -1591 -45 -209 -64 -561 -42 -777 90 -860 607 -1613 1374 -2004 288
-147 578 -232 901 -265 151 -15 483 -7 626 16 1139 179 2013 1093 2140 2240
13 116 13 414 0 530 -65 581 -318 1109 -731 1523 -405 407 -928 661 -1497 727
-153 18 -445 18 -595 0z m568 -155 c255 -29 546 -115 779 -229 712 -350 1210
-1043 1311 -1825 19 -149 22 -436 5 -571 -35 -295 -124 -585 -256 -835 -54
-101 -195 -323 -213 -334 -5 -3 -23 34 -41 82 -175 469 -550 876 -1000 1085
-104 48 -275 110 -352 127 -32 7 -58 16 -58 20 0 4 24 23 53 42 116 77 228
213 293 354 100 216 100 492 0 708 -107 232 -285 388 -536 472 -79 26 -96 28
-250 28 -154 0 -171 -2 -250 -28 -107 -36 -178 -72 -255 -128 -178 -131 -298
-318 -340 -527 -23 -111 -16 -305 14 -405 58 -194 185 -370 346 -478 33 -22
51 -40 43 -42 -7 -3 -56 -17 -108 -31 -442 -124 -833 -409 -1096 -801 -68
-102 -180 -321 -208 -409 -27 -83 -27 -82 -88 2 -191 269 -331 599 -393 930
-41 221 -49 512 -20 738 92 714 514 1356 1139 1733 270 162 629 285 939 321
104 12 437 13 542 1z"/>
</g>
</svg>
