<?xml version="1.0" standalone="no"?>
<!DOCTYPE svg PUBLIC "-//W3C//DTD SVG 20010904//EN"
 "http://www.w3.org/TR/2001/REC-SVG-20010904/DTD/svg10.dtd">
<svg version="1.0" xmlns="http://www.w3.org/2000/svg"
 width="512.000000pt" height="512.000000pt" viewBox="0 0 512.000000 512.000000"
 preserveAspectRatio="xMidYMid meet">

<g transform="translate(0.000000,512.000000) scale(0.100000,-0.100000)"
fill="#000000" stroke="none">
<path d="M1719 4922 c-307 -123 -565 -290 -803 -522 -473 -460 -728 -1032
-753 -1690 -19 -512 123 -1016 407 -1443 788 -1187 2405 -1464 3545 -608 114
86 318 280 410 391 164 198 304 436 400 680 51 132 43 194 -36 253 -46 33 -94
32 -219 -6 -226 -68 -417 -97 -652 -97 -409 0 -802 115 -1153 338 -243 155
-490 402 -647 647 -348 546 -432 1205 -233 1834 30 94 29 147 -2 190 -60 79
-127 88 -264 33z"/>
</g>
</svg>
