<?xml version="1.0" standalone="no"?>
<!DOCTYPE svg PUBLIC "-//W3C//DTD SVG 20010904//EN"
 "http://www.w3.org/TR/2001/REC-SVG-20010904/DTD/svg10.dtd">
<svg version="1.0" xmlns="http://www.w3.org/2000/svg"
 width="512.000000pt" height="512.000000pt" viewBox="0 0 512.000000 512.000000"
 preserveAspectRatio="xMidYMid meet">

<g transform="translate(0.000000,512.000000) scale(0.100000,-0.100000)"
fill="#000000" stroke="none">
<path d="M3607 4575 c-209 -40 -388 -131 -543 -277 l-52 -49 -53 22 c-415 165
-882 171 -1344 17 -719 -239 -1198 -850 -1275 -1627 -52 -524 108 -1058 435
-1450 338 -406 831 -638 1435 -677 335 -21 779 103 1090 304 559 361 890 974
890 1647 l0 143 74 41 c533 292 697 980 354 1478 -139 202 -349 348 -587 409
-124 32 -311 40 -424 19z m361 -171 c318 -65 559 -301 643 -629 30 -118 32
-306 5 -408 -70 -263 -243 -473 -480 -582 -204 -95 -465 -102 -672 -19 -208
83 -363 227 -460 429 -67 139 -79 195 -78 370 0 173 18 255 83 390 110 229
320 394 574 449 88 20 291 20 385 0z m-1788 -1066 l0 -903 638 -638 637 -638
-50 -45 c-80 -72 -260 -188 -385 -248 -430 -205 -895 -231 -1347 -75 -369 127
-693 381 -906 709 -271 419 -353 930 -228 1417 138 538 544 995 1066 1201 159
63 395 117 533 121 l42 1 0 -902z m329 887 c58 -9 147 -27 196 -40 88 -23 205
-63 205 -70 0 -2 -20 -44 -45 -94 -145 -292 -145 -622 2 -918 135 -272 400
-474 706 -537 93 -19 295 -20 390 -2 l67 13 0 -126 c-1 -402 -147 -803 -405
-1115 l-57 -68 -614 613 -614 614 0 872 0 873 31 0 c17 0 79 -7 138 -15z"/>
<path d="M3370 4081 c-127 -27 -230 -148 -230 -270 0 -99 66 -207 154 -254 57
-30 192 -31 251 -2 165 82 208 299 86 438 -59 66 -176 106 -261 88z m104 -166
c67 -32 88 -127 40 -184 -46 -55 -121 -60 -173 -11 -57 53 -46 149 21 190 39
24 69 25 112 5z"/>
<path d="M3971 4053 c-31 -27 -511 -879 -511 -909 0 -38 16 -61 50 -73 33 -11
68 -3 87 20 11 14 455 796 487 858 20 39 15 72 -16 101 -27 25 -69 26 -97 3z"/>
<path d="M4047 3596 c-244 -88 -259 -420 -23 -527 47 -21 153 -24 203 -6 144
53 217 213 166 363 -24 70 -103 147 -173 168 -65 19 -122 20 -173 2z m143
-161 c38 -19 60 -63 60 -116 0 -33 -6 -47 -34 -75 -28 -28 -42 -34 -76 -34
-52 0 -95 25 -115 66 -19 40 -19 56 -1 99 27 64 104 92 166 60z"/>
<path d="M1490 3190 c-18 -18 -20 -33 -20 -130 l0 -109 -72 -34 c-235 -110
-297 -397 -126 -583 75 -82 133 -109 262 -124 145 -17 222 -92 220 -215 -1
-72 -19 -111 -75 -158 -91 -78 -222 -63 -300 33 -19 23 -33 59 -43 105 -16 75
-32 95 -79 95 -70 0 -93 -40 -76 -134 22 -127 107 -233 225 -281 l59 -24 5
-115 c4 -92 9 -119 22 -133 25 -25 83 -22 111 5 19 20 22 35 25 135 l4 113 47
17 c265 94 314 473 84 642 -58 42 -115 62 -210 74 -131 16 -203 81 -211 191
-5 73 11 122 54 166 67 67 162 83 244 42 63 -33 98 -81 115 -163 16 -77 26
-92 72 -101 27 -5 37 -1 64 25 30 30 31 34 24 89 -14 123 -100 244 -210 296
-29 14 -59 26 -64 26 -7 0 -11 34 -11 94 0 101 -12 151 -40 166 -31 16 -79 11
-100 -10z"/>
</g>
</svg>
