<?xml version="1.0" standalone="no"?>
<!DOCTYPE svg PUBLIC "-//W3C//DTD SVG 20010904//EN"
 "http://www.w3.org/TR/2001/REC-SVG-20010904/DTD/svg10.dtd">
<svg version="1.0" xmlns="http://www.w3.org/2000/svg"
 width="512.000000pt" height="512.000000pt" viewBox="0 0 512.000000 512.000000"
 preserveAspectRatio="xMidYMid meet">

<g transform="translate(0.000000,512.000000) scale(0.100000,-0.100000)"
fill="#000000" stroke="none">
<path d="M2365 5114 c-320 -34 -580 -107 -850 -239 -470 -230 -813 -585 -1068
-1105 -66 -134 -75 -183 -44 -218 27 -30 309 -135 340 -127 35 9 44 22 122
165 242 446 514 734 866 919 376 198 837 243 1277 126 607 -161 1108 -615
1327 -1199 42 -113 95 -307 95 -348 l0 -28 -94 0 c-95 0 -125 -11 -113 -42 2
-7 95 -143 206 -303 215 -308 226 -319 267 -273 40 45 417 563 421 578 8 31
-21 39 -142 42 l-120 3 -12 105 c-115 981 -906 1761 -1953 1926 -92 15 -443
26 -525 18z m558 -103 c385 -68 715 -210 1019 -439 117 -87 307 -272 391 -378
252 -321 403 -695 436 -1082 8 -83 13 -109 27 -119 11 -8 50 -13 106 -13 48 0
88 -2 88 -5 0 -10 -323 -440 -331 -440 -7 0 -319 439 -319 450 0 2 39 6 88 7
l87 3 3 31 c8 84 -89 413 -177 599 -230 486 -662 868 -1187 1049 -553 190
-1157 120 -1619 -188 -294 -196 -544 -488 -745 -868 -34 -65 -63 -118 -64
-118 -6 0 -260 100 -264 105 -8 8 140 300 203 400 175 279 419 527 673 684
309 192 647 305 1027 345 106 11 444 -3 558 -23z"/>
<path d="M2445 4013 c-591 -50 -1092 -450 -1273 -1014 -17 -52 -39 -138 -48
-190 -24 -126 -23 -370 0 -498 152 -833 969 -1366 1785 -1165 556 138 983 594
1087 1165 23 127 23 371 0 498 -91 496 -427 912 -890 1101 -203 83 -449 121
-661 103z m95 -118 c3 -22 3 -58 0 -80 l-5 -40 -80 -7 c-227 -20 -441 -104
-626 -243 l-86 -64 -58 57 -57 57 43 38 c104 92 299 203 441 251 134 45 301
76 388 72 33 -1 35 -3 40 -41z m297 14 c121 -24 226 -61 343 -119 103 -52 246
-150 300 -205 l33 -34 -23 -34 c-13 -19 -38 -44 -56 -56 l-33 -23 -53 44
c-180 152 -411 253 -638 280 l-95 12 3 83 3 83 62 -6 c34 -3 103 -14 154 -25z
m-5 -247 c360 -96 646 -345 779 -677 64 -161 73 -211 73 -425 0 -168 -3 -206
-22 -272 -116 -421 -410 -715 -830 -830 -65 -18 -106 -22 -262 -22 -123 -1
-204 3 -240 12 -230 56 -411 154 -565 307 -170 168 -280 375 -320 603 -18 99
-18 305 0 404 77 435 413 792 843 898 114 28 123 28 302 25 128 -2 182 -7 242
-23z m-1212 -189 c67 -60 68 -67 17 -126 -150 -177 -251 -406 -279 -634 l-12
-93 -83 0 -83 0 6 63 c23 237 113 481 249 672 58 82 123 155 137 155 4 0 26
-16 48 -37z m2085 -148 c136 -205 219 -446 227 -660 l3 -80 -40 -5 c-22 -3
-58 -3 -80 0 l-40 5 -7 80 c-20 226 -104 442 -242 625 l-64 85 57 58 56 57 38
-42 c21 -23 63 -79 92 -123z m-2362 -792 c4 -2 7 -24 7 -47 0 -69 28 -213 61
-310 40 -120 105 -243 185 -349 l66 -88 -26 -20 c-15 -12 -41 -36 -59 -55
l-33 -35 -26 28 c-88 94 -212 309 -262 456 -36 106 -64 246 -68 342 l-3 79 30
7 c29 7 112 2 128 -8z m2591 -95 c-22 -228 -100 -447 -230 -644 -56 -85 -139
-184 -155 -184 -12 0 -88 69 -100 92 -8 15 0 31 44 86 80 100 114 154 162 255
54 114 92 243 107 364 l12 93 83 0 83 0 -6 -62z m-2146 -811 c100 -80 154
-114 255 -162 114 -54 243 -92 364 -107 l93 -12 0 -83 0 -83 -62 6 c-241 23
-489 116 -688 260 -109 78 -145 117 -131 141 10 20 86 93 97 93 3 0 35 -24 72
-53z m1602 25 c0 -5 23 -31 50 -58 l50 -50 -27 -26 c-94 -88 -309 -212 -456
-262 -106 -36 -246 -64 -341 -68 l-80 -3 -8 39 c-5 22 -5 58 0 80 l8 41 79 7
c227 21 444 105 625 242 84 65 100 74 100 58z"/>
<path d="M2305 3512 c-63 -14 -95 -70 -95 -165 l0 -64 -79 -6 c-119 -8 -172
-49 -173 -137 -1 -83 64 -140 159 -140 l53 0 0 -445 0 -445 -45 0 c-59 0 -104
-19 -137 -58 -39 -46 -44 -94 -16 -150 31 -62 71 -84 163 -90 l73 -4 4 -69 c3
-55 8 -73 28 -94 51 -54 131 -50 178 10 18 22 22 41 22 96 l0 69 39 0 39 0 4
-74 c3 -62 7 -79 27 -100 34 -36 85 -49 125 -32 55 24 70 50 76 135 l5 76 59
7 c160 20 297 146 341 313 40 154 -2 330 -109 450 l-42 49 24 59 c46 113 38
256 -19 369 -34 67 -112 142 -179 172 l-60 27 0 71 c0 79 -18 128 -58 154 -51
33 -139 13 -172 -40 -7 -11 -16 -56 -18 -98 l-5 -78 -28 0 -29 0 0 66 c0 73
-19 125 -53 147 -26 16 -74 26 -102 19z m57 -89 c15 -13 18 -32 18 -108 0 -57
4 -95 12 -103 7 -7 44 -12 94 -12 110 0 114 4 114 126 0 91 1 95 25 106 45 20
59 -7 65 -124 l5 -101 49 -14 c202 -59 290 -287 191 -496 -14 -30 -25 -60 -25
-68 0 -8 23 -37 51 -64 97 -95 142 -231 119 -361 -30 -174 -139 -276 -312
-294 -49 -5 -84 -13 -89 -21 -5 -8 -9 -53 -9 -101 0 -78 -2 -88 -21 -98 -37
-20 -49 3 -49 93 0 110 -7 117 -121 117 -111 0 -119 -8 -119 -122 0 -62 -3
-79 -17 -87 -11 -6 -24 -6 -35 0 -15 8 -18 23 -18 93 0 55 -4 87 -12 94 -7 5
-57 12 -111 14 -90 3 -101 5 -118 27 -25 31 -24 59 3 88 19 20 31 23 93 23 42
0 76 5 83 12 9 9 12 138 12 519 0 453 -2 508 -16 513 -9 3 -47 6 -85 6 -75 0
-109 19 -109 60 0 11 9 29 20 40 17 17 33 20 118 20 63 0 102 4 110 12 8 8 12
47 12 110 0 82 3 99 18 107 24 14 33 13 54 -6z"/>
<path d="M2383 3079 c-10 -10 -13 -67 -13 -215 0 -175 2 -203 16 -208 9 -3 78
-6 155 -6 104 0 149 4 177 16 80 33 133 112 133 198 0 89 -40 159 -114 198
-37 20 -60 23 -192 26 -112 3 -153 0 -162 -9z m317 -88 c97 -51 96 -196 0
-246 -21 -11 -61 -15 -140 -15 l-110 0 0 140 0 140 108 0 c86 0 114 -4 142
-19z"/>
<path d="M2388 2550 c-16 -10 -18 -34 -18 -265 0 -250 0 -255 21 -266 15 -8
76 -10 193 -7 145 3 178 7 216 24 64 30 107 69 136 126 70 137 18 294 -120
366 -49 25 -58 27 -231 29 -116 2 -186 0 -197 -7z m414 -105 c91 -63 114 -180
52 -267 -49 -70 -86 -82 -256 -86 l-148 -4 0 197 0 197 154 -4 c153 -3 155 -3
198 -33z"/>
<path d="M412 2663 c-87 -111 -406 -550 -409 -564 -8 -30 22 -38 142 -41 l120
-3 12 -109 c115 -977 910 -1759 1953 -1923 159 -24 509 -24 668 1 674 105
1220 448 1586 996 81 122 164 270 216 388 44 99 46 134 11 166 -21 19 -293
126 -320 126 -34 0 -72 -42 -117 -132 -113 -226 -285 -468 -448 -631 -244
-246 -519 -400 -836 -471 -419 -92 -818 -44 -1218 149 -211 102 -360 205 -521
360 -263 253 -449 579 -537 940 -37 154 -41 145 70 145 101 0 128 12 110 49
-5 10 -99 147 -208 305 -221 317 -220 317 -274 249z m207 -295 c83 -119 151
-221 151 -227 0 -6 -35 -11 -82 -13 -81 -3 -83 -4 -86 -29 -5 -43 36 -223 84
-368 101 -307 264 -570 496 -798 172 -170 318 -273 543 -383 388 -190 778
-249 1184 -179 598 102 1053 462 1411 1117 56 102 77 132 89 127 113 -41 238
-90 244 -96 5 -4 -16 -59 -46 -122 -148 -312 -347 -582 -570 -774 -589 -509
-1426 -675 -2176 -431 -842 273 -1439 991 -1510 1816 -8 83 -13 109 -27 119
-11 8 -50 13 -107 13 -49 0 -87 4 -85 8 9 22 324 442 330 440 4 -2 74 -101
157 -220z"/>
</g>
</svg>
