<svg version="1.0" xmlns="http://www.w3.org/2000/svg"
 width="360.000000px" height="360.000000px" viewBox="0 0 360.000000 360.000000"
 preserveAspectRatio="xMidYMid meet">

<g transform="translate(0.000000,360.000000) scale(0.100000,-0.100000)"
fill="#8a00ff" stroke="none">
<path d="M1505 3124 c-154 -118 -286 -221 -293 -228 -9 -9 -12 -59 -10 -205
l3 -192 210 160 210 160 5 -1427 5 -1426 77 -49 77 -49 75 47 76 47 2 1434 3
1435 190 -147 c105 -80 202 -155 218 -166 l27 -19 -1 198 0 198 -284 218
c-156 119 -290 219 -297 222 -7 2 -139 -93 -293 -211z"/>
<path d="M2580 1750 c0 -671 3 -1220 7 -1220 4 0 72 39 150 86 l143 87 0 433
0 434 135 0 135 0 0 -329 c0 -182 3 -332 8 -334 4 -2 77 39 162 92 l155 97 3
645 2 646 -145 101 c-79 56 -147 102 -150 102 -3 0 -5 -144 -5 -320 l0 -320
-150 0 -150 0 -2 412 -3 413 -139 97 c-76 54 -143 98 -147 98 -5 0 -9 -539 -9
-1220z"/>
<path d="M525 2577 l-460 -352 0 -165 0 -165 153 -3 152 -3 1 88 0 88 155 117
154 117 0 -62 0 -62 -305 -506 c-168 -279 -305 -510 -305 -515 1 -8 894 -572
921 -582 5 -2 9 157 9 392 l0 396 -160 0 -159 0 -3 -105 -3 -105 -75 46 c-41
25 -81 51 -87 58 -10 9 41 101 237 426 l250 414 0 418 c0 230 -3 418 -7 417
-5 0 -215 -159 -468 -352z"/>
</g>
</svg>
